<svg xmlns="http://www.w3.org/2000/svg" width="38" height="37" viewBox="0 0 38 37">
    <g fill="none" fill-rule="evenodd">
        <path fill="#3B46FF" d="M61.058 172.585c.307-1.239.421-2.517.34-3.819C60.975 162.089 55.281 157 48.673 157h-4.79c-.197 0-1.442.006-2.894.017-.055-.002-.107-.017-.164-.017h-4.891C32.67 157 30 159.705 30 163.011V177.2c0 4.07 3.288 7.4 7.308 7.4 4.019 0 7.307-3.33 7.307-7.4v-15.76h4.113c4.138 0 7.792 3.052 8.258 7.215.174 1.55-.088 3.063-.771 4.473-.311.642-.297 1.395.035 2.025.334.63.947 1.059 1.646 1.153 3.558.476 6.16 3.808 5.656 7.513-.453 3.337-3.416 5.741-6.743 5.741H44.615c-1.21 0-2.192.994-2.192 2.22 0 1.226.982 2.22 2.192 2.22h12.116c5.6 0 10.52-4.127 11.19-9.758.613-5.162-2.376-9.858-6.863-11.657" transform="translate(-30 -157)"/>
    </g>
</svg>
